<svg xmlns="http://www.w3.org/2000/svg" viewBox="0 0 15 15"><defs><style>.cls-1{fill:#666;}</style></defs><title>下载</title><g id="图层_2" data-name="图层 2"><g id="图层_1-2" data-name="图层 1"><path class="cls-1" d="M14.56,14.12H.44a.44.44,0,0,0-.44.44A.44.44,0,0,0,.44,15H14.56a.44.44,0,0,0,.44-.44A.44.44,0,0,0,14.56,14.12Z"/><path class="cls-1" d="M7.2,11.06l.09,0,0,0a.38.38,0,0,0,.34,0l0,0,.09,0,4.41-4.12a.43.43,0,0,0,0-.62.44.44,0,0,0-.62,0L7.94,9.72V.44a.44.44,0,0,0-.88,0V9.72L3.39,6.29a.44.44,0,0,0-.62,0,.43.43,0,0,0,0,.62Z"/></g></g></svg>