<svg xmlns="http://www.w3.org/2000/svg" viewBox="0 0 15 15"><defs><style>.cls-1{fill:#666;}</style></defs><title>专科类型_2</title><g id="图层_2" data-name="图层 2"><g id="图层_1-2" data-name="图层 1"><path class="cls-1" d="M7.5,0A7.5,7.5,0,1,0,15,7.5,7.5,7.5,0,0,0,7.5,0Zm0,14A6.5,6.5,0,1,1,14,7.5,6.51,6.51,0,0,1,7.5,14Z"/><path class="cls-1" d="M11.5,10.2H7A.38.38,0,0,0,7,11h4.5a.38.38,0,1,0,0-.75Z"/><path class="cls-1" d="M4.82,10.2H4A.38.38,0,0,0,4,11h.82a.38.38,0,0,0,0-.75Z"/><path class="cls-1" d="M11.5,7.2H7A.38.38,0,0,0,7,8h4.5a.38.38,0,1,0,0-.75Z"/><path class="cls-1" d="M4.82,7.2H4A.38.38,0,0,0,4,8h.82a.38.38,0,0,0,0-.75Z"/><path class="cls-1" d="M11.5,4.2H6.94a.38.38,0,1,0,0,.75H11.5a.38.38,0,1,0,0-.75Z"/><path class="cls-1" d="M4.82,4.2H4A.38.38,0,0,0,4,5h.82a.38.38,0,0,0,0-.75Z"/></g></g></svg>