<svg xmlns="http://www.w3.org/2000/svg" viewBox="0 0 15 15"><defs><style>.cls-1{fill:#666;}</style></defs><title>删除_1</title><g id="图层_2" data-name="图层 2"><g id="图层_1-2" data-name="图层 1"><path class="cls-1" d="M3.47.88h8.06A.43.43,0,0,0,12,.44.44.44,0,0,0,11.53,0H3.47A.44.44,0,0,0,3,.44.43.43,0,0,0,3.47.88Z"/><path class="cls-1" d="M14.56,3.26H.44a.44.44,0,0,0,0,.88H2.06L3.15,14.6a.25.25,0,0,1,0,.07l0,.08,0,.07,0,.06.09,0a.1.1,0,0,0,.05,0,.41.41,0,0,0,.16,0h7.82a.41.41,0,0,0,.16,0,.1.1,0,0,0,0,0l.09,0,0-.06.05-.07,0-.08a.25.25,0,0,1,0-.07L12.94,4.14h1.62a.44.44,0,1,0,0-.88Zm-7.5.88v10H4l-1-10Zm4,10H7.94v-10h4.11Z"/></g></g></svg>