<svg xmlns="http://www.w3.org/2000/svg" viewBox="0 0 15 15"><defs><style>.cls-1{fill:#666;}</style></defs><title>完成</title><g id="图层_2" data-name="图层 2"><g id="图层_1-2" data-name="图层 1"><path class="cls-1" d="M7.5,15A7.5,7.5,0,1,1,15,7.5,7.5,7.5,0,0,1,7.5,15ZM7.5.88A6.62,6.62,0,1,0,14.12,7.5,6.63,6.63,0,0,0,7.5.88Z"/><path class="cls-1" d="M6.62,10.59a.4.4,0,0,1-.31-.13L3.66,7.81a.44.44,0,0,1,.62-.62L6.62,9.52l5-5a.44.44,0,0,1,.62,0,.42.42,0,0,1,0,.62l-5.29,5.3A.43.43,0,0,1,6.62,10.59Z"/></g></g></svg>