<svg xmlns="http://www.w3.org/2000/svg" viewBox="0 0 15 15"><defs><style>.cls-1{fill:#666;}</style></defs><title>导出</title><g id="图层_2" data-name="图层 2"><g id="图层_1-2" data-name="图层 1"><path class="cls-1" d="M14.56,14.12H.44a.44.44,0,0,0-.44.44A.44.44,0,0,0,.44,15H14.56a.44.44,0,0,0,.44-.44A.44.44,0,0,0,14.56,14.12Z"/><path class="cls-1" d="M1.76,12.64a.45.45,0,0,0,.45-.44V8.83A4.5,4.5,0,0,1,6.93,4.6h5.34L8.66,8.1a.44.44,0,0,0,0,.62A.45.45,0,0,0,9,8.85a.47.47,0,0,0,.31-.12l4.12-4h0l0-.06a.35.35,0,0,0,.05-.08.19.19,0,0,0,0-.08.24.24,0,0,0,0-.08.29.29,0,0,0,0-.09.25.25,0,0,0,0-.08l-.05-.07s0-.05,0-.07h0L9.28.12a.46.46,0,0,0-.63,0,.45.45,0,0,0,0,.63l3.06,3H6.93A5.38,5.38,0,0,0,1.32,8.83V12.2A.44.44,0,0,0,1.76,12.64Z"/></g></g></svg>