<svg xmlns="http://www.w3.org/2000/svg" viewBox="0 0 15 15"><defs><style>.cls-1{fill:#666;}</style></defs><title>导入</title><g id="图层_2" data-name="图层 2"><g id="图层_1-2" data-name="图层 1"><path class="cls-1" d="M14.56,14.12H.44a.44.44,0,0,0-.44.44A.44.44,0,0,0,.44,15H14.56a.44.44,0,0,0,.44-.44A.44.44,0,0,0,14.56,14.12Z"/><path class="cls-1" d="M1.18.88H4.76A4.58,4.58,0,0,1,9.28,5.5v5.27L5.51,7.18a.44.44,0,1,0-.61.64l4.23,4a.47.47,0,0,0,.09.06l0,0a.51.51,0,0,0,.17,0,.45.45,0,0,0,.16,0l.05,0a.47.47,0,0,0,.09-.06l4.24-4a.45.45,0,0,0,0-.63.44.44,0,0,0-.62,0l-3.21,3.05V5.5A5.46,5.46,0,0,0,4.76,0H1.18A.44.44,0,0,0,.74.44.44.44,0,0,0,1.18.88Z"/></g></g></svg>