<svg xmlns="http://www.w3.org/2000/svg" viewBox="0 0 15 15"><defs><style>.cls-1{fill:#666;}</style></defs><title>播放</title><g id="图层_2" data-name="图层 2"><g id="图层_1-2" data-name="图层 1"><path class="cls-1" d="M7.5,15A7.5,7.5,0,1,1,15,7.5,7.5,7.5,0,0,1,7.5,15ZM7.5.88A6.62,6.62,0,1,0,14.12,7.5,6.63,6.63,0,0,0,7.5.88Z"/><path class="cls-1" d="M5.74,10.59a.43.43,0,0,1-.22-.06.44.44,0,0,1-.23-.38V4.85a.44.44,0,0,1,.23-.38.43.43,0,0,1,.44,0l4.41,2.65a.44.44,0,0,1,0,.76L6,10.53A.46.46,0,0,1,5.74,10.59Zm.44-5V9.37L9.29,7.5Z"/></g></g></svg>