<svg xmlns="http://www.w3.org/2000/svg" viewBox="0 0 17 11"><defs><style>.cls-1{fill:#666;}</style></defs><title>查看</title><g id="图层_2" data-name="图层 2"><g id="图层_1-2" data-name="图层 1"><path class="cls-1" d="M8.5,11C4.29,11,.72,8.73,0,5.61a.5.5,0,1,1,1-.22C1.6,8.06,4.76,10,8.5,10S15.4,8.06,16,5.39a.5.5,0,1,1,1,.22C16.28,8.73,12.71,11,8.5,11Z"/><path class="cls-1" d="M.5,6H.39A.5.5,0,0,1,0,5.39C.72,2.27,4.29,0,8.5,0S16.28,2.27,17,5.39a.5.5,0,1,1-1,.22C15.4,2.94,12.25,1,8.5,1S1.6,2.94,1,5.61A.51.51,0,0,1,.5,6Z"/><path class="cls-1" d="M8.5,8.5A2.79,2.79,0,0,1,6,5.5a2.79,2.79,0,0,1,2.5-3,2.79,2.79,0,0,1,2.5,3A2.79,2.79,0,0,1,8.5,8.5Zm0-5c-.83,0-1.5.9-1.5,2s.67,2,1.5,2,1.5-.9,1.5-2S9.33,3.5,8.5,3.5Z"/></g></g></svg>