<svg xmlns="http://www.w3.org/2000/svg" viewBox="0 0 15 15"><defs><style>.cls-1{fill:#666;}</style></defs><title>特色科室_3</title><g id="图层_2" data-name="图层 2"><g id="图层_1-2" data-name="图层 1"><path class="cls-1" d="M11.44,6,8.87,5.63,7.73,3.3a.39.39,0,0,0-.68,0L5.9,5.63,3.34,6A.38.38,0,0,0,3,6.26a.4.4,0,0,0,.1.39L5,8.46,4.55,11a.35.35,0,0,0,.15.37.34.34,0,0,0,.22.07.33.33,0,0,0,.17,0l2.3-1.21,2.3,1.21a.35.35,0,0,0,.39,0,.35.35,0,0,0,.15-.37L9.79,8.46l1.86-1.81a.4.4,0,0,0,.1-.39A.37.37,0,0,0,11.44,6ZM9.13,8.06A.37.37,0,0,0,9,8.39l.34,2-1.8-.94a.34.34,0,0,0-.34,0l-1.8.94.34-2a.37.37,0,0,0-.11-.33L4.2,6.64l2-.29a.38.38,0,0,0,.28-.21l.9-1.82.9,1.82a.38.38,0,0,0,.28.21l2,.29Z"/><path class="cls-1" d="M7.5,0A7.5,7.5,0,1,0,15,7.5,7.5,7.5,0,0,0,7.5,0Zm0,14A6.5,6.5,0,1,1,14,7.5,6.51,6.51,0,0,1,7.5,14Z"/></g></g></svg>