<svg xmlns="http://www.w3.org/2000/svg" viewBox="0 0 15 15"><defs><style>.cls-1{fill:#666;}</style></defs><title>确认完成</title><g id="图层_2" data-name="图层 2"><g id="图层_1-2" data-name="图层 1"><path class="cls-1" d="M14.56,15H.44A.44.44,0,0,1,0,14.56a.44.44,0,0,1,.44-.44H14.56a.44.44,0,0,1,.44.44A.44.44,0,0,1,14.56,15Z"/><path class="cls-1" d="M12.21,4.23,7.8.12l-.06,0L7.66,0,7.59,0H7.42L7.34,0,7.26.08,7.2.12,2.79,4.23a.44.44,0,0,0,0,.63A.43.43,0,0,0,3.09,5a.44.44,0,0,0,.3-.12L7.06,1.45v9.28a.44.44,0,1,0,.88,0V1.45l3.67,3.43a.44.44,0,0,0,.3.12.43.43,0,0,0,.32-.14A.44.44,0,0,0,12.21,4.23Z"/></g></g></svg>