<svg xmlns="http://www.w3.org/2000/svg" viewBox="0 0 15 15"><defs><style>.cls-1{fill:#666;}</style></defs><title>编辑</title><g id="图层_2" data-name="图层 2"><g id="图层_1-2" data-name="图层 1"><path class="cls-1" d="M10.12,2.8a.43.43,0,0,1-.25-.07.45.45,0,0,1-.12-.62L11.06.19a.43.43,0,0,1,.61-.11.45.45,0,0,1,.12.61L10.48,2.61A.41.41,0,0,1,10.12,2.8Z"/><path class="cls-1" d="M3.28,12.87A.46.46,0,0,1,3,12.79a.45.45,0,0,1-.12-.61L8.07,4.59a.44.44,0,1,1,.73.5L3.64,12.67A.42.42,0,0,1,3.28,12.87Z"/><path class="cls-1" d="M14.56,15H.44A.44.44,0,0,1,0,14.56a.44.44,0,0,1,.44-.44H14.56a.44.44,0,0,1,.44.44A.44.44,0,0,1,14.56,15Z"/></g></g></svg>