<svg xmlns="http://www.w3.org/2000/svg" viewBox="0 0 15 15"><defs><style>.cls-1{fill:#666;}</style></defs><title>门诊量_3</title><g id="图层_2" data-name="图层 2"><g id="图层_1-2" data-name="图层 1"><path class="cls-1" d="M10.06,3.63H4.81A.79.79,0,0,0,4,4.41v6.18a.79.79,0,0,0,.81.78h5.25a.8.8,0,0,0,.82-.78V10a.38.38,0,0,0-.38-.37.37.37,0,0,0-.37.37l-.07.68-5.31,0,0-2.93h5.35A.37.37,0,0,0,10.5,8a.38.38,0,0,0,.38-.38V4.41A.8.8,0,0,0,10.06,3.63Zm-5.25.74,5.32,0v2.5H4.79Z"/><path class="cls-1" d="M8.2,5.28H7.69V4.77a.25.25,0,0,0-.5,0v.51H6.67a.25.25,0,0,0,0,.5h.52V6.3a.25.25,0,0,0,.5,0V5.78H8.2a.25.25,0,0,0,0-.5Z"/><path class="cls-1" d="M7.5,0A7.5,7.5,0,1,0,15,7.5,7.5,7.5,0,0,0,7.5,0Zm0,14A6.5,6.5,0,1,1,14,7.5,6.51,6.51,0,0,1,7.5,14Z"/></g></g></svg>